<svg width="198" height="62" viewBox="0 0 198 62" fill="none" xmlns="http://www.w3.org/2000/svg">
<path d="M190.448 3.37439L177.158 45.7854L184.261 45.8864L197.653 3.37439H190.448Z" fill="#0976BC"/>
<path d="M179.592 3.17285H186.488L172.792 46.2949H150.063L145.706 60.3979H122.569L125.204 52.4869H141.137L150.37 21.6389H157.575L152.705 37.9748H157.168L162.14 21.5389H169.443L164.371 38.1819H168.33L179.592 3.17285Z" fill="#0F76BC"/>
<path d="M152.093 53.605H159.296L157.067 60.398H150.065L152.093 53.605Z" fill="#0976BC"/>
<path d="M143.267 1.14685H150.472L148.238 7.94385H141.239L143.267 1.14685Z" fill="#0976BC"/>
<path d="M134.946 1.14685H142.151L139.918 7.94385H132.92L134.946 1.14685Z" fill="#0976BC"/>
<mask id="mask0_6_30" style="mask-type:alpha" maskUnits="userSpaceOnUse" x="0" y="0" width="198" height="62">
<rect y="0.000244141" width="197.653" height="61.732" fill="#D9D9D9"/>
</mask>
<g mask="url(#mask0_6_30)">
<path d="M0.78418 30.242V21.616C0.78418 21.616 5.80518 16.695 13.2922 11.497C15.9782 9.624 24.5862 5.112 33.0532 3.961C41.9792 2.741 51.7562 5.622 60.3462 10.224C71.9862 16.465 84.3172 25.446 105.772 19.739C105.772 19.739 127.811 13.21 139.691 0L139.742 0.058C139.742 0.058 135.884 8.981 112.396 20.195C101.708 25.293 89.8192 26.229 74.5002 21.338C61.7902 17.275 49.0052 7.489 33.7872 9.466C21.6092 11.051 5.86118 23.948 0.78418 30.242Z" fill="#F58728"/>
<path d="M77.0251 58.982H73.9461L73.0111 60.695H71.3691L75.7631 52.923H77.5391L78.7981 60.695H77.2831L77.0251 58.982ZM76.8281 57.685L76.3751 54.561L74.5011 57.685H76.8281Z" fill="#F5872A"/>
<path d="M79.8179 60.6952L81.4449 52.9242H83.0409L81.6899 59.3982H85.6429L85.3729 60.6952H79.8179Z" fill="#F5872A"/>
<path d="M89.2158 60.695L90.8438 52.923H93.4968C94.0738 52.923 94.4768 52.941 94.7078 52.981C95.0868 53.033 95.4108 53.139 95.6768 53.293C95.9438 53.456 96.1448 53.668 96.2798 53.93C96.4188 54.2 96.4878 54.488 96.4878 54.814C96.4878 55.246 96.3708 55.616 96.1278 55.933C95.8858 56.249 95.5138 56.49 95.0168 56.652C95.4128 56.763 95.7278 56.955 95.9508 57.238C96.1758 57.516 96.2858 57.833 96.2858 58.189C96.2858 58.655 96.1548 59.097 95.8888 59.519C95.6268 59.931 95.2598 60.238 94.7888 60.42C94.3258 60.603 93.6928 60.695 92.8808 60.695H89.2158ZM91.0768 59.446H92.6188C93.2678 59.446 93.6968 59.403 93.9198 59.327C94.1408 59.236 94.3188 59.101 94.4508 58.909C94.5828 58.717 94.6478 58.515 94.6478 58.305C94.6478 58.05 94.5538 57.833 94.3628 57.666C94.1698 57.497 93.8558 57.417 93.4088 57.417H91.4988L91.0768 59.446ZM91.7818 56.062H92.9978C93.5488 56.062 93.9428 56.029 94.1798 55.947C94.4218 55.87 94.6018 55.745 94.7248 55.562C94.8438 55.39 94.9038 55.198 94.9038 55.002C94.9038 54.8 94.8468 54.637 94.7338 54.512C94.6208 54.382 94.4608 54.301 94.2488 54.257C94.1338 54.234 93.8558 54.224 93.4088 54.224H92.1708L91.7818 56.062Z" fill="#F5872A"/>
<path d="M102.155 58.982H99.077L98.142 60.695H96.498L100.893 52.923H102.667L103.931 60.695H102.414L102.155 58.982ZM101.959 57.685L101.504 54.561L99.631 57.685H101.959Z" fill="#F5872A"/>
<path d="M106.537 60.695H104.937L106.563 52.928H110.015C110.608 52.928 111.071 52.986 111.4 53.111C111.731 53.231 111.997 53.451 112.201 53.777C112.405 54.104 112.506 54.497 112.506 54.964C112.506 55.621 112.309 56.164 111.913 56.595C111.516 57.027 110.916 57.292 110.116 57.392C110.323 57.58 110.51 57.819 110.692 58.122C111.054 58.726 111.449 59.586 111.884 60.695H110.165C110.032 60.258 109.761 59.577 109.358 58.645C109.137 58.146 108.906 57.806 108.656 57.638C108.506 57.532 108.242 57.479 107.865 57.479H107.212L106.537 60.695ZM107.457 56.312H108.306C109.164 56.312 109.732 56.259 110.013 56.158C110.29 56.058 110.51 55.895 110.673 55.679C110.831 55.463 110.913 55.227 110.913 54.982C110.913 54.704 110.796 54.493 110.569 54.349C110.425 54.267 110.121 54.224 109.65 54.224H107.888L107.457 56.312Z" fill="#F5872A"/>
<path d="M118.015 60.5419C117.766 60.6379 117.512 60.7099 117.246 60.7579C116.981 60.8109 116.708 60.8349 116.422 60.8349C115.476 60.8349 114.708 60.5369 114.125 59.9469C113.545 59.3509 113.243 58.5789 113.243 57.6279C113.243 56.8449 113.432 56.0579 113.798 55.2569C114.161 54.4599 114.673 53.8509 115.337 53.4279C115.997 53.0049 116.75 52.7939 117.598 52.7939C118.556 52.7939 119.333 53.0919 119.922 53.6869C120.518 54.2819 120.807 55.0739 120.807 56.0629C120.807 56.8219 120.651 57.5419 120.335 58.2319C120.018 58.9289 119.596 59.4949 119.067 59.9229C119.404 60.2539 119.761 60.5269 120.133 60.7379L119.381 61.7329C118.888 61.4929 118.431 61.0889 118.015 60.5419ZM118.145 58.8139C118.467 58.4919 118.731 58.0699 118.926 57.5509C119.117 57.0369 119.216 56.5539 119.216 56.0959C119.216 55.4819 119.054 55.0029 118.727 54.6519C118.395 54.3019 117.975 54.1289 117.469 54.1289C117.118 54.1289 116.796 54.2099 116.499 54.3729C116.201 54.5319 115.93 54.7659 115.683 55.0649C115.431 55.3719 115.226 55.7459 115.071 56.1979C114.912 56.6429 114.833 57.0909 114.833 57.5419C114.833 58.1469 114.999 58.6219 115.337 58.9719C115.666 59.3219 116.093 59.4949 116.616 59.4949C116.756 59.4949 116.911 59.4859 117.073 59.4609C117.131 59.4519 117.161 59.4369 117.171 59.4279C117.188 59.4229 117.194 59.4039 117.194 59.3839C117.194 59.3509 117.14 59.2889 117.035 59.1929C116.811 58.9819 116.577 58.8229 116.324 58.7319L116.906 57.8489C117.381 58.0839 117.797 58.4099 118.145 58.8139Z" fill="#F5872A"/>
<path d="M142.657 10.781C142.657 10.781 139.004 10.071 135.301 11.19C130.566 12.615 128.253 17.987 128.253 17.987C128.253 17.987 124.412 30.877 124.392 30.977C123.48 36.453 128.4 37.418 128.4 37.418H132.563L132.411 38.384L113.336 37.976L118.306 21.539H111.204L103.697 46.299H137.687C137.687 46.299 146.396 18.059 146.412 17.987C147.732 11.699 142.657 10.781 142.657 10.781ZM136.314 28.792C135.552 30.521 135.046 31.683 133.578 31.942C131.806 32.244 131.802 30.165 131.802 30.165C131.802 30.165 131.906 28.745 132.512 26.561C133.014 24.77 135.145 19.053 135.145 19.053C135.145 19.053 135.908 17.229 136.67 16.772C137.353 16.364 138.755 16.264 139.206 17.685C139.667 19.105 137.07 27.079 136.314 28.792Z" fill="#0976BC"/>
<path d="M66.2045 60.5991L70.7705 51.9301H4.71649L0.000488281 60.4501L66.2045 60.5991Z" fill="#0976BC"/>
<path d="M7.72216 45.113L8.09816 45.43L8.62816 44.96L7.94716 44.355L7.58316 44.681L7.21416 44.355L6.72316 44.821L7.37816 45.43L7.72216 45.113ZM23.1352 46.222L23.5172 46.539L24.0482 46.069L23.3642 45.459L23.0012 45.791L22.6322 45.459L22.1342 45.925L22.7932 46.539L23.1352 46.222ZM32.4932 37.227L32.8702 37.544L33.4012 37.074L32.7192 36.468L32.3582 36.795L31.9832 36.468L31.4952 36.934L32.1522 37.544L32.4932 37.227ZM11.1772 48.681C11.3082 48.321 11.3742 48.022 11.3742 47.796C11.3742 47.398 11.2402 47.038 10.9742 46.721L10.3752 47.547C10.5252 47.697 10.6432 47.917 10.7272 48.205H8.54216L8.10216 46.102L7.37016 46.741L7.41416 46.913L6.37016 47.47C6.23716 47.547 6.14316 47.657 6.09216 47.806L5.74316 48.877L7.47616 49.127L7.77916 48.627L7.90816 49.256H10.9472C11.0272 49.069 11.1042 48.877 11.1772 48.681ZM6.65116 47.94L7.52716 47.461L7.65816 48.09L6.65116 47.94ZM45.4342 36.694L44.7552 36.097L44.2532 36.569L44.9452 37.169L45.4342 36.694ZM64.6212 50.336L65.3002 50.937L65.8062 50.465L65.1112 49.87L64.6212 50.336ZM47.9192 46.375L48.4122 45.906L47.7312 45.305L47.2252 45.781L47.9192 46.375ZM45.0812 38.014L45.4562 38.321L45.9842 37.861L45.3052 37.255L44.9452 37.582L44.5672 37.255L44.0792 37.721L44.7382 38.321L45.0812 38.014ZM39.7342 41.038L39.7022 41.101C39.5452 41.422 39.3712 41.648 39.1812 41.787C38.9232 41.974 38.6622 42.07 38.4042 42.07C38.2542 42.07 38.0682 42.032 37.8492 41.959C38.2812 42.646 38.6352 42.987 38.9132 42.987C39.1252 42.987 39.3532 42.824 39.6002 42.492C39.8352 42.18 40.0202 41.815 40.1632 41.384L40.1652 41.365H43.0762L43.3592 41.004L43.5222 41.365H45.0622L45.3532 41.004L45.5062 41.365H46.8622C46.8892 41.312 46.9062 41.274 46.9152 41.259C46.9502 41.178 47.0082 41.024 47.0862 40.793C47.2252 40.405 47.2932 40.111 47.2932 39.919C47.2932 39.526 47.1622 39.165 46.8962 38.834L46.2972 39.661C46.4422 39.808 46.5562 40.025 46.6432 40.318H45.8952L45.2132 38.872L44.6862 39.531L45.0332 40.318H43.9042L43.2272 38.872L42.6962 39.531L43.0532 40.318H40.1892L40.1782 40.298C40.1122 40.093 39.9822 39.833 39.7882 39.517L39.7342 39.434L39.1612 40.111C39.2472 40.202 39.3432 40.337 39.4512 40.514C39.5752 40.707 39.6672 40.88 39.7342 41.038ZM10.3392 50.211L9.96216 49.894L9.43216 50.36L10.1152 50.97L10.4712 50.643L10.8482 50.97L11.3462 50.499L10.6872 49.894L10.3392 50.211ZM59.9072 45.493L60.2802 45.81L60.8092 45.349L60.1342 44.735L59.7702 45.06L59.3982 44.735L58.8992 45.199L59.5602 45.81L59.9072 45.493ZM68.0942 45.176C68.0402 45.147 67.9982 45.11 67.9682 45.055C67.9382 45.004 67.9212 44.922 67.9212 44.821L67.5692 45.358L67.4972 45.478C67.4482 45.545 67.4222 45.603 67.4222 45.657C67.4222 45.757 67.4822 45.824 67.5972 45.867C67.6072 45.872 67.6222 45.877 67.6372 45.877L67.8242 48.205H65.7682L65.4622 47.158L64.8232 47.788L64.9502 48.205H62.8962L62.8892 48.186C62.8222 47.984 62.6892 47.719 62.4972 47.403L62.4432 47.326L61.8692 47.998C61.9552 48.094 62.0522 48.224 62.1612 48.402C62.2822 48.593 62.3772 48.771 62.4432 48.925L62.4122 48.987C62.2532 49.31 62.0772 49.539 61.8902 49.674C61.6302 49.866 61.3712 49.957 61.1132 49.957C60.9912 49.957 60.8412 49.928 60.6762 49.88L60.7142 49.784C60.9092 49.223 61.0082 48.781 61.0082 48.469C61.0082 47.94 60.8922 47.451 60.6642 46.995C60.5782 46.817 60.4702 46.679 60.3372 46.563C60.2042 46.452 60.0842 46.395 59.9742 46.395C59.7132 46.395 59.4482 46.65 59.1722 47.158C58.9442 47.576 58.8312 47.931 58.8312 48.238C58.8312 48.502 58.9392 48.704 59.1502 48.843C59.2532 48.915 59.3522 48.954 59.4482 48.964C59.4942 48.968 59.6152 48.973 59.8072 48.973H60.3272V49.016C60.2992 49.165 60.2802 49.261 60.2642 49.305C60.2642 49.329 60.2572 49.352 60.2432 49.385C59.7402 49.732 59.2972 49.909 58.9162 49.909C58.2852 49.909 57.9712 49.491 57.9712 48.656C57.9712 48.407 58.0022 48.128 58.0662 47.83L57.9942 48.008C57.7352 48.641 57.6072 49.175 57.6072 49.607C57.6072 49.986 57.7182 50.294 57.9402 50.537C58.1652 50.777 58.4552 50.902 58.8082 50.902C59.1062 50.902 59.4502 50.831 59.8362 50.681C60.0292 50.61 60.2522 50.499 60.5072 50.35L60.6422 49.976C61.0362 50.575 61.3642 50.879 61.6222 50.879C61.8332 50.879 62.0622 50.71 62.3112 50.379C62.5422 50.067 62.7312 49.703 62.8742 49.276L62.8772 49.256H64.9192L65.1662 48.939L65.2662 49.256H68.0862C68.1652 49.079 68.2382 48.886 68.3112 48.685C68.3792 48.488 68.4302 48.334 68.4622 48.238C68.5142 48.084 68.5382 47.917 68.5382 47.738L68.4132 46.184L68.5522 46.246L68.8642 45.512L68.2402 45.247C68.1722 45.219 68.1232 45.195 68.0942 45.176ZM59.9642 47.921C59.7992 47.921 59.6942 47.917 59.6422 47.897C59.5482 47.854 59.5042 47.782 59.5042 47.676C59.5042 47.591 59.5462 47.499 59.6322 47.398C59.7032 47.322 59.7832 47.283 59.8752 47.283C60.1052 47.283 60.2382 47.499 60.2762 47.921H59.9642ZM12.2492 47.998C12.3352 48.094 12.4312 48.224 12.5382 48.402C12.6612 48.593 12.7552 48.771 12.8212 48.925L12.7892 48.987C12.6312 49.305 12.4572 49.534 12.2682 49.674C12.0152 49.866 11.7532 49.957 11.4912 49.957C11.3412 49.957 11.1552 49.923 10.9362 49.851C11.3692 50.537 11.7232 50.879 12.0012 50.879C12.2582 50.879 12.5312 50.662 12.8182 50.24C12.9692 50.024 13.0952 49.765 13.1912 49.468C13.2902 49.17 13.3392 48.906 13.3392 48.681C13.3392 48.306 13.1672 47.854 12.8212 47.326L12.2492 47.998ZM34.1762 47.547C34.3202 47.697 34.4352 47.917 34.5212 48.205H31.9322C31.6312 48.205 31.4242 48.162 31.3132 48.065C31.1372 47.926 31.0512 47.709 31.0512 47.428C31.0512 47.211 31.0752 47.019 31.1212 46.851C30.9812 47.024 30.8552 47.264 30.7452 47.566C30.6352 47.863 30.5812 48.119 30.5812 48.334C30.5812 48.55 30.6372 48.743 30.7512 48.91C30.8632 49.079 31.0062 49.185 31.1782 49.223C31.2742 49.242 31.3602 49.256 31.4382 49.256H34.7412C34.8312 49.06 34.9072 48.867 34.9792 48.681C35.1102 48.315 35.1772 48.017 35.1772 47.796C35.1772 47.403 35.0422 47.047 34.7772 46.721L34.1762 47.547ZM40.7282 47.076C40.5262 46.727 40.2972 46.549 40.0472 46.549C39.9282 46.549 39.7932 46.616 39.6412 46.75C39.5262 46.862 39.4242 46.966 39.3382 47.072C39.2672 47.153 39.1152 47.355 38.8762 47.668L38.5372 48.119L38.4752 48.205H36.9692C36.8152 48.205 36.7232 48.186 36.6932 48.133C36.6662 48.09 36.6522 47.984 36.6522 47.815V44.86L35.8112 45.747V48.573L35.8192 48.714V48.91C35.8192 49.141 35.9612 49.256 36.2502 49.256H38.3992L38.6722 48.819L40.4712 49.607C40.6582 49.3 40.8172 49.006 40.9542 48.723C41.0642 48.494 41.1182 48.315 41.1182 48.205C41.1182 48.084 41.0812 47.907 41.0022 47.682C40.9262 47.456 40.8342 47.254 40.7282 47.076ZM39.3062 47.955L39.4692 47.763C39.5232 47.69 39.5812 47.634 39.6442 47.586C39.7402 47.489 39.8182 47.442 39.8842 47.442C40.0202 47.442 40.1442 47.543 40.2522 47.738C40.3612 47.931 40.4202 48.171 40.4292 48.44L39.3062 47.955ZM54.9902 45.176C54.9362 45.147 54.8932 45.11 54.8612 45.055C54.8302 45.004 54.8132 44.922 54.8132 44.821L54.4632 45.358L54.3892 45.478C54.3432 45.545 54.3192 45.603 54.3192 45.657C54.3192 45.757 54.3742 45.824 54.4932 45.867C54.5022 45.872 54.5142 45.877 54.5322 45.877L54.7182 48.205H52.7672C52.6642 48.205 52.6052 48.186 52.5862 48.138C52.5662 48.094 52.5582 48.061 52.5582 48.027C52.5552 47.878 52.5532 47.788 52.5532 47.772V44.854L51.7132 45.762V48.205H49.7042L49.9612 47.796L49.8552 47.792C49.5112 47.772 49.2162 47.719 48.9752 47.647C48.6772 47.557 48.3192 47.398 47.8992 47.178L47.4082 46.913C47.1992 46.804 47.0312 46.746 46.9062 46.746C46.7882 46.746 46.6602 46.808 46.5212 46.941C46.4432 47.014 46.3522 47.111 46.2472 47.22C46.0702 47.428 45.9592 47.557 45.9142 47.614C46.0182 47.581 46.1012 47.566 46.1652 47.566C46.3312 47.566 46.5022 47.614 46.6792 47.7C46.8002 47.772 46.8922 47.825 46.9552 47.869C47.1812 48.003 47.3612 48.1 47.4922 48.147C47.5522 48.171 47.5982 48.19 47.6352 48.205H44.1322L43.0802 46.395L42.6192 47.197L43.1942 48.205H42.2112C42.1002 48.205 42.0222 48.205 41.9802 48.196C41.9012 48.181 41.8312 48.142 41.7652 48.08C41.6992 48.017 41.6582 47.946 41.6362 47.869L41.5992 47.94C41.4522 48.238 41.3792 48.521 41.3792 48.79C41.3792 48.993 41.4392 49.122 41.5622 49.185C41.6562 49.233 41.8312 49.256 42.0942 49.256H43.3862L43.5922 48.93L43.7792 49.256H47.0532C47.2252 49.256 47.3452 49.227 47.4122 49.17C47.4662 49.127 47.5272 49.079 47.5982 49.016C47.7882 48.843 47.9862 48.737 48.1882 48.694C48.2902 48.67 48.4172 48.656 48.5762 48.656H48.7442L48.7832 48.67C48.7922 48.805 48.8502 48.935 48.9582 49.055C49.0782 49.189 49.3002 49.256 49.6172 49.256H51.5402L51.7132 48.997C51.7332 49.118 51.7992 49.194 51.9102 49.233C51.9672 49.247 52.0772 49.256 52.2412 49.256H54.9822C55.0582 49.079 55.1342 48.886 55.2032 48.685C55.2742 48.488 55.3252 48.334 55.3582 48.238C55.4072 48.084 55.4342 47.917 55.4342 47.738L55.3092 46.184L55.4472 46.246L55.7592 45.512L55.1342 45.247C55.0682 45.219 55.0182 45.195 54.9902 45.176ZM32.4292 45.834L31.9412 46.289L32.5972 46.895L32.9422 46.583L33.3142 46.895L33.8452 46.433L33.1642 45.834L32.8052 46.15L32.4292 45.834ZM32.5492 40.74L32.6802 41.365H37.4272L37.7932 40.639L37.8842 40.467L37.9432 40.356C37.9452 40.347 37.9472 40.323 37.9472 40.294C37.9472 40.246 37.9152 40.183 37.8492 40.102L36.2632 38.345L38.1002 37.865L38.5552 36.934L35.7472 37.634L35.3342 38.547L35.2732 38.705C35.2602 38.734 35.2532 38.763 35.2532 38.782C35.2532 38.853 35.2832 38.916 35.3472 38.978L35.7472 39.358L35.8632 39.223L36.8502 40.318H33.3142L32.8752 38.216L32.1432 38.853L32.1852 39.026L31.1442 39.584C31.0082 39.661 30.9162 39.77 30.8632 39.919L30.5172 40.99L32.2482 41.24L32.5492 40.74ZM32.2992 39.569L32.4292 40.202L31.4202 40.054L32.2992 39.569ZM18.1792 50.173L18.8692 50.768L19.3642 50.303L18.6832 49.703L18.1792 50.173ZM26.0902 45.176C26.0372 45.147 25.9942 45.11 25.9632 45.055C25.9312 45.004 25.9162 44.922 25.9162 44.821L25.5652 45.358L25.4922 45.478C25.4442 45.545 25.4192 45.603 25.4192 45.657C25.4192 45.757 25.4762 45.824 25.5922 45.867C25.6042 45.872 25.6162 45.877 25.6332 45.877L25.8202 48.205H23.7662L23.4562 47.158L22.8172 47.788L22.9482 48.205H20.6562L20.9122 47.796L20.8062 47.792C20.4622 47.772 20.1682 47.719 19.9272 47.647C19.6292 47.557 19.2702 47.398 18.8502 47.178L18.3602 46.913C18.1482 46.804 17.9832 46.746 17.8602 46.746C17.7392 46.746 17.6112 46.808 17.4742 46.941C17.3952 47.014 17.3032 47.111 17.1992 47.22C17.0212 47.428 16.9112 47.557 16.8672 47.614C16.9692 47.581 17.0552 47.566 17.1172 47.566C17.2822 47.566 17.4552 47.614 17.6302 47.7C17.7512 47.772 17.8422 47.825 17.9062 47.869C18.1352 48.003 18.3112 48.1 18.4452 48.147C18.5032 48.171 18.5502 48.19 18.5872 48.205H15.2742C15.1192 48.205 15.0282 48.186 15.0032 48.133C14.9722 48.09 14.9572 47.984 14.9572 47.815V44.86L14.1162 45.747V48.573L14.1252 48.714V48.91C14.1252 49.141 14.2692 49.256 14.5542 49.256H18.0042C18.1762 49.256 18.2972 49.227 18.3632 49.17C18.4172 49.127 18.4832 49.079 18.5502 49.016C18.7402 48.843 18.9372 48.737 19.1412 48.694C19.2412 48.67 19.3712 48.656 19.5282 48.656H19.6952L19.7342 48.67C19.7442 48.805 19.8012 48.935 19.9102 49.055C20.0292 49.189 20.2512 49.256 20.5682 49.256H22.9142L23.1612 48.939L23.2642 49.256H26.0812C26.1602 49.079 26.2352 48.886 26.3062 48.685C26.3752 48.488 26.4282 48.334 26.4572 48.238C26.5092 48.084 26.5362 47.917 26.5362 47.738L26.4112 46.184L26.5472 46.246L26.8572 45.512L26.2352 45.247C26.1692 45.219 26.1202 45.195 26.0902 45.176ZM28.2822 46.064L28.0932 44.86L27.2602 45.877C27.2672 45.948 27.2692 45.996 27.2692 46.021L27.4012 48.042C27.4182 48.321 27.4242 48.583 27.4242 48.843C27.4242 49.108 27.4182 49.338 27.4012 49.52C27.7032 49.227 27.9072 48.944 28.0152 48.67C28.1232 48.392 28.1772 48.017 28.1772 47.547C28.1772 47.384 28.1672 47.144 28.1482 46.817C28.1282 46.496 28.1172 46.328 28.1172 46.313V46.237L28.2822 46.064ZM70.1212 46.313V46.237L70.2862 46.064L70.0972 44.86L69.2622 45.877C69.2722 45.948 69.2762 45.996 69.2762 46.021L69.4072 48.042C69.4222 48.321 69.4312 48.583 69.4312 48.843C69.4312 49.108 69.4222 49.338 69.4072 49.52C69.7092 49.227 69.9132 48.944 70.0202 48.67C70.1292 48.392 70.1832 48.017 70.1832 47.547C70.1832 47.384 70.1732 47.144 70.1512 46.817C70.1312 46.496 70.1212 46.328 70.1212 46.313Z" fill="#F5872A"/>
</g>
</svg>
